<svg xmlns="http://www.w3.org/2000/svg" xmlns:xlink="http://www.w3.org/1999/xlink" viewBox="0 0 204.96 256"><defs><style>.a{fill:url(#a);}.b{fill:url(#b);}.c{fill:url(#c);}</style><linearGradient id="a" x1="158.31" y1="67.37" x2="158.31" y2="256" gradientUnits="userSpaceOnUse"><stop offset="0" stop-color="#f0db4f"/><stop offset="1" stop-color="#ffde57"/></linearGradient><linearGradient id="b" x1="45.97" y1="189.98" x2="45.97" gradientUnits="userSpaceOnUse"><stop offset="0" stop-color="#4584b6"/><stop offset="1" stop-color="#3278c5"/><stop offset="1" stop-color="#3178c6"/></linearGradient><radialGradient id="c" cx="102.55" cy="128" r="115.91" gradientUnits="userSpaceOnUse"><stop offset="0" stop-color="#646464"/><stop offset="0.13" stop-color="#4e4e4e"/><stop offset="0.38" stop-color="#2c2c2c"/><stop offset="0.61" stop-color="#141414"/><stop offset="0.82" stop-color="#050505"/><stop offset="1"/></radialGradient></defs><polygon class="a" points="132.6 67.37 111.66 67.37 184.02 189.01 145.35 256 166.28 256 204.96 189.01 132.6 67.37"/><polygon class="b" points="71.01 189.98 91.95 189.98 20.93 66.99 59.61 0 38.68 0 0 66.99 71.01 189.98"/><polyline class="c" points="170.27 130.69 204.95 64.67 172.61 0 59.61 0 20.93 66.99 91.95 189.98 71.01 189.98 33.76 125.45 0.15 191.33 32.48 256 145.35 256 184.02 189.01 111.66 67.37 132.6 67.37"/></svg>