<svg xmlns="http://www.w3.org/2000/svg" xmlns:xlink="http://www.w3.org/1999/xlink" viewBox="0 0 516.63 92"><defs><style>.a{fill:#00518a;}.b{fill:url(#a);}.c{fill:url(#b);}.d{fill:url(#c);}</style><linearGradient id="a" x1="56.89" y1="24.21" x2="56.89" y2="92" gradientUnits="userSpaceOnUse"><stop offset="0" stop-color="#f0db4f"/><stop offset="1" stop-color="#ffde57"/></linearGradient><linearGradient id="b" x1="16.52" y1="68.27" x2="16.52" gradientUnits="userSpaceOnUse"><stop offset="0" stop-color="#4584b6"/><stop offset="1" stop-color="#3278c5"/><stop offset="1" stop-color="#3178c6"/></linearGradient><radialGradient id="c" cx="36.85" cy="46" r="41.65" gradientUnits="userSpaceOnUse"><stop offset="0" stop-color="#646464"/><stop offset="0.13" stop-color="#4e4e4e"/><stop offset="0.38" stop-color="#2c2c2c"/><stop offset="0.61" stop-color="#141414"/><stop offset="0.82" stop-color="#050505"/><stop offset="1"/></radialGradient></defs><path class="a" d="M98.94,70a30.45,30.45,0,0,0,15.41,4.35c8.79,0,13.93-4.64,13.93-11.36,0-6.22-3.56-9.78-12.55-13.24-10.86-3.85-17.58-9.48-17.58-18.87,0-10.37,8.59-18.07,21.53-18.07,6.82,0,11.76,1.58,14.72,3.26l-2.37,7a26.57,26.57,0,0,0-12.64-3.16c-9.09,0-12.55,5.43-12.55,10,0,6.22,4,9.28,13.24,12.84,11.26,4.35,17,9.78,17,19.56,0,10.27-7.61,19.16-23.31,19.16-6.42,0-13.44-1.87-17-4.24Z" transform="translate(-1.12 -1)"/><path class="a" d="M183.3,49.23H157.42v24h28.84v7.22H148.82V13.86h36v7.22H157.42v21H183.3Z" transform="translate(-1.12 -1)"/><path class="a" d="M208.19,59.5l-6.92,21h-8.89L215,13.86h10.38L248.1,80.45h-9.19l-7.11-21ZM230,52.79,223.5,33.62C222,29.27,221,25.32,220,21.47h-.2c-1,4-2.07,8-3.35,12.05L210,52.79Z" transform="translate(-1.12 -1)"/><path class="a" d="M313.59,51.21c-.5-9.29-1.09-20.45-1-28.75h-.3c-2.27,7.8-5,16.1-8.39,25.29l-11.76,32.3h-6.52L274.86,48.34c-3.16-9.38-5.82-18-7.7-25.88H267c-.2,8.3-.69,19.46-1.28,29.44L263.9,80.45h-8.2l4.64-66.59h11l11.36,32.21c2.76,8.2,5,15.51,6.71,22.42h.3c1.68-6.72,4.05-14,7-22.42l11.85-32.21h11l4.15,66.59h-8.39Z" transform="translate(-1.12 -1)"/><path class="a" d="M336.89,13.86h8.6V73.23h28.45v7.22H336.89Z" transform="translate(-1.12 -1)"/><path class="a" d="M418,49.23H392.11v24H421v7.22H383.52V13.86h36v7.22H392.11v21H418Z" transform="translate(-1.12 -1)"/><path class="a" d="M430.93,70a30.45,30.45,0,0,0,15.41,4.35c8.79,0,13.93-4.64,13.93-11.36,0-6.22-3.56-9.78-12.55-13.24-10.87-3.85-17.58-9.48-17.58-18.87,0-10.37,8.59-18.07,21.53-18.07,6.82,0,11.76,1.58,14.72,3.26l-2.37,7a26.57,26.57,0,0,0-12.64-3.16c-9.09,0-12.55,5.43-12.55,10,0,6.22,4.05,9.28,13.24,12.84,11.26,4.35,17,9.78,17,19.56,0,10.27-7.61,19.16-23.31,19.16-6.43,0-13.44-1.87-17-4.24Z" transform="translate(-1.12 -1)"/><path class="a" d="M479.62,70A30.51,30.51,0,0,0,495,74.32C503.83,74.32,509,69.68,509,63c0-6.22-3.55-9.78-12.54-13.24-10.87-3.85-17.59-9.48-17.59-18.87,0-10.37,8.6-18.07,21.54-18.07,6.82,0,11.75,1.58,14.72,3.26l-2.37,7a26.62,26.62,0,0,0-12.65-3.16c-9.08,0-12.54,5.43-12.54,10,0,6.22,4.05,9.28,13.23,12.84,11.27,4.35,17,9.78,17,19.56,0,10.27-7.61,19.16-23.32,19.16-6.42,0-13.43-1.87-17-4.24Z" transform="translate(-1.12 -1)"/><polygon class="b" points="47.65 24.21 40.13 24.21 66.13 67.92 52.23 92 59.76 92 73.66 67.92 47.65 24.21"/><polygon class="c" points="25.52 68.27 33.04 68.27 7.52 24.07 21.42 0 13.9 0 0 24.07 25.52 68.27"/><polyline class="d" points="61.19 46.97 73.65 23.24 62.03 0 21.42 0 7.52 24.07 33.04 68.27 25.52 68.27 12.13 45.08 0.05 68.76 11.67 92 52.23 92 66.13 67.92 40.13 24.21 47.65 24.21"/></svg>